# Blender v2.82 (sub 7) OBJ File: ''
# www.blender.org
mtllib endOfLevel.mtl
o Cube
v 1.000000 3.230834 3.786849
v 1.000000 -3.230834 3.786849
v 1.000000 3.230834 6.381898
v 1.000000 -3.230834 6.381898
v -1.000000 3.230834 3.786849
v -1.000000 -3.230834 3.786849
v -1.000000 3.230834 6.381898
v -1.000000 -3.230834 6.381898
v -2.119458 -0.860353 6.000413
v 0.980575 -0.349526 5.874132
v 2.652790 -0.591488 6.001069
v -1.000000 -3.230834 5.084373
v 1.000000 3.230834 5.084373
v -1.000000 3.230834 5.084373
v 1.000000 -3.230834 5.084373
vt 0.625000 0.625000
vt 0.875000 0.625000
vt 0.875000 0.750000
vt 0.625000 0.750000
vt 0.375000 0.750000
vt 0.625000 1.000000
vt 0.375000 1.000000
vt 0.375000 0.125000
vt 0.625000 0.125000
vt 0.625000 0.250000
vt 0.375000 0.250000
vt 0.125000 0.625000
vt 0.375000 0.625000
vt 0.125000 0.750000
vt 0.625000 0.500000
vt 0.375000 0.500000
vt 0.125000 0.500000
vt 0.375000 0.000000
vt 0.625000 0.000000
vt 0.875000 0.500000
vn 0.0000 1.0000 0.0000
vn 0.0000 0.0000 1.0000
vn -1.0000 0.0000 0.0000
vn 0.0000 -1.0000 0.0000
vn 1.0000 0.0000 0.0000
vn 0.0000 0.0000 -1.0000
usemtl Material
s off
f 13/1/1 14/2/1 7/3/1 3/4/1
f 4/5/2 3/4/2 7/6/2 8/7/2
f 12/8/3 14/9/3 5/10/3 6/11/3
f 12/12/4 15/13/4 4/5/4 8/14/4
f 15/13/5 13/1/5 3/4/5 4/5/5
f 6/11/6 5/10/6 1/15/6 2/16/6
f 2/16/5 1/15/5 13/1/5 15/13/5
f 6/17/4 2/16/4 15/13/4 12/12/4
f 8/18/3 7/19/3 14/9/3 12/8/3
f 1/15/1 5/20/1 14/2/1 13/1/1
l 3 9
l 9 10
l 10 11
o Cube.001
v 1.000000 3.230834 -6.829347
v 1.000000 -3.230834 -6.829347
v 1.000000 3.230834 -4.234298
v 1.000000 -3.230834 -4.234298
v -1.000000 3.230834 -6.829347
v -1.000000 -3.230834 -6.829347
v -1.000000 3.230834 -4.234298
v -1.000000 -3.230834 -4.234298
v -2.119458 -0.860353 -4.615783
v 0.980575 -0.349526 -4.742064
v 2.652790 -0.591488 -4.615127
v -1.000000 -3.230834 -5.531822
v 1.000000 3.230834 -5.531822
v -1.000000 3.230834 -5.531822
v 1.000000 -3.230834 -5.531822
vt 0.625000 0.625000
vt 0.875000 0.625000
vt 0.875000 0.750000
vt 0.625000 0.750000
vt 0.375000 0.750000
vt 0.625000 1.000000
vt 0.375000 1.000000
vt 0.375000 0.125000
vt 0.625000 0.125000
vt 0.625000 0.250000
vt 0.375000 0.250000
vt 0.125000 0.625000
vt 0.375000 0.625000
vt 0.125000 0.750000
vt 0.625000 0.500000
vt 0.375000 0.500000
vt 0.125000 0.500000
vt 0.375000 0.000000
vt 0.625000 0.000000
vt 0.875000 0.500000
vn 0.0000 1.0000 0.0000
vn 0.0000 0.0000 1.0000
vn -1.0000 0.0000 0.0000
vn 0.0000 -1.0000 0.0000
vn 1.0000 0.0000 0.0000
vn 0.0000 0.0000 -1.0000
usemtl Material.001
s off
f 28/21/7 29/22/7 22/23/7 18/24/7
f 19/25/8 18/24/8 22/26/8 23/27/8
f 27/28/9 29/29/9 20/30/9 21/31/9
f 27/32/10 30/33/10 19/25/10 23/34/10
f 30/33/11 28/21/11 18/24/11 19/25/11
f 21/31/12 20/30/12 16/35/12 17/36/12
f 17/36/11 16/35/11 28/21/11 30/33/11
f 21/37/10 17/36/10 30/33/10 27/32/10
f 23/38/9 22/39/9 29/29/9 27/28/9
f 16/35/7 20/40/7 29/22/7 28/21/7
l 18 24
l 24 25
l 25 26
o Cube.002
v 1.000000 2.348161 -6.853301
v 1.000000 4.067676 -6.853301
v 1.000000 2.348161 6.352348
v 1.000000 4.067676 6.352348
v -1.000000 2.348161 -6.853301
v -1.000000 4.067676 -6.853301
v -1.000000 2.348161 6.352348
v -1.000000 4.067676 6.352348
v -2.119458 3.436867 4.411053
v 0.980575 3.300931 3.768436
v 2.652790 3.365320 4.414392
v -1.000000 4.067676 -0.250476
v 1.000000 2.348161 -0.250476
v -1.000000 2.348161 -0.250476
v 1.000000 4.067676 -0.250476
vt 0.625000 0.625000
vt 0.625000 0.750000
vt 0.875000 0.750000
vt 0.875000 0.625000
vt 0.375000 0.750000
vt 0.375000 1.000000
vt 0.625000 1.000000
vt 0.375000 0.125000
vt 0.375000 0.250000
vt 0.625000 0.250000
vt 0.625000 0.125000
vt 0.125000 0.625000
vt 0.125000 0.750000
vt 0.375000 0.625000
vt 0.375000 0.500000
vt 0.625000 0.500000
vt 0.125000 0.500000
vt 0.375000 0.000000
vt 0.625000 0.000000
vt 0.875000 0.500000
vn 0.0000 -1.0000 0.0000
vn 0.0000 0.0000 1.0000
vn -1.0000 0.0000 0.0000
vn 0.0000 1.0000 0.0000
vn 1.0000 0.0000 0.0000
vn 0.0000 0.0000 -1.0000
usemtl Material.002
s off
f 43/41/13 33/42/13 37/43/13 44/44/13
f 34/45/14 38/46/14 37/47/14 33/42/14
f 42/48/15 36/49/15 35/50/15 44/51/15
f 42/52/16 38/53/16 34/45/16 45/54/16
f 45/54/17 34/45/17 33/42/17 43/41/17
f 36/49/18 32/55/18 31/56/18 35/50/18
f 32/55/17 45/54/17 43/41/17 31/56/17
f 36/57/16 42/52/16 45/54/16 32/55/16
f 38/58/15 42/48/15 44/51/15 37/59/15
f 31/56/13 43/41/13 44/44/13 35/60/13
l 33 39
l 39 40
l 40 41
